<svg id="Layer_1" data-name="Layer 1" xmlns="http://www.w3.org/2000/svg" viewBox="0 0 854.34 200"><defs><style>.cls-1{fill:#1e1e1e;}.cls-2{fill:#7cb518;}</style></defs><path class="cls-1" d="M172.89,101.38a65.12,65.12,0,0,1,4.78-24.81,62.52,62.52,0,0,1,13.9-20.87,66.46,66.46,0,0,1,21-14.35,61.12,61.12,0,0,1,24.3-5,66.84,66.84,0,0,1,24.7,4.45,64.83,64.83,0,0,1,20.75,13.33,66.45,66.45,0,0,1,15,21.55,62.48,62.48,0,0,1,5.29,25A69.9,69.9,0,0,1,298,126.58a63.41,63.41,0,0,1-13.83,21.15,62,62,0,0,1-21.05,14.46,66.36,66.36,0,0,1-25.65,4.89,61.11,61.11,0,0,1-46.35-19.8A67.79,67.79,0,0,1,177.5,126,66,66,0,0,1,172.89,101.38Zm29.7-.23q0,17.22,9.45,27.29t25.66,10.07q16,0,25.48-10.3t9.51-27.73q0-15.65-10-25.71t-25-10.07q-15.54,0-25.32,10.18T202.59,101.15Z"/><path class="cls-1" d="M343.73,97.21v66.61H311.66V0h32.07V66.38h67.73V0h32.07V163.82H411.46V97.21Z"/><path class="cls-1" d="M452.57,40.06h30.49l30.16,86.41,33.19-86.41h30.15L511.28,200H481.57l15.78-39.67Z"/><path class="cls-1" d="M614,153.92V200H585.61V40.06H614V50.41a62.57,62.57,0,0,1,18.12-10.19,61.06,61.06,0,0,1,20.36-3.32,65.66,65.66,0,0,1,22,3.66,56.53,56.53,0,0,1,18.57,10.86,66.65,66.65,0,0,1,23.18,50.86,66,66,0,0,1-5.46,26.44,62.73,62.73,0,0,1-15.47,21.71,59.62,59.62,0,0,1-19.52,12.38,63.13,63.13,0,0,1-23.12,4.27,65.63,65.63,0,0,1-21.21-3.2A54.92,54.92,0,0,1,614,153.92Zm1.12-52.54q0,15.86,10.24,26.49A35.31,35.31,0,0,0,676,127.7a35.77,35.77,0,0,0,10.52-25.87q0-15.64-10.58-26T649.29,65.48A32.33,32.33,0,0,0,625.1,75.89Q615.08,86.3,615.08,101.38Z"/><path class="cls-1" d="M755,111.05q1.46,13.4,10.63,21.1t23.68,7.71a36.72,36.72,0,0,0,17.39-4.06,31,31,0,0,0,12.2-11.36H850q-7.87,20.25-23.57,31.45t-36.29,11.19a65.12,65.12,0,0,1-25.48-4.89,62.3,62.3,0,0,1-20.88-14.46,66.62,66.62,0,0,1-18.45-45.68,66.48,66.48,0,0,1,4.45-24.36,62.43,62.43,0,0,1,13.1-20.53,67.63,67.63,0,0,1,21.38-15.42,59.14,59.14,0,0,1,24.64-5.4,63.68,63.68,0,0,1,30,7.32,69.2,69.2,0,0,1,23.75,20.59,55.62,55.62,0,0,1,8.83,17.89,81.87,81.87,0,0,1,2.87,22.72c0,.68,0,1.71-.12,3.1s-.11,2.42-.11,3.09Zm68.29-22.84q-3.71-12.37-12.43-18.84t-22-6.47a33,33,0,0,0-20.59,7A33.87,33.87,0,0,0,756,88.21Z"/><polygon class="cls-2" points="163.84 94.18 163.84 163.82 94.2 94.18 163.84 94.18"/><path class="cls-1" d="M81.91,131.22a49.31,49.31,0,1,1,42.07-75h35.74a82,82,0,1,0-26.25,89.35l-23.24-23.25A49.27,49.27,0,0,1,81.91,131.22Z"/></svg>